<?xml version="1.0" standalone="no"?><!DOCTYPE svg PUBLIC "-//W3C//DTD SVG 1.1//EN" "http://www.w3.org/Graphics/SVG/1.1/DTD/svg11.dtd"><svg t="1561978461881" class="icon" viewBox="0 0 1024 1024" version="1.1" xmlns="http://www.w3.org/2000/svg" p-id="1994" xmlns:xlink="http://www.w3.org/1999/xlink" width="400" height="400"><defs><style type="text/css"></style></defs><path d="M262.499797 668.586752a30.098059 30.098059 0 0 0 28.817291 19.851911 40.344207 40.344207 0 0 0 26.255753-9.605763 30.738443 30.738443 0 0 0 11.526916-24.334601A35.861517 35.861517 0 0 0 326.538221 640.409846L202.944064 395.142686a35.221133 35.221133 0 0 0-34.580748-19.211527 35.221133 35.221133 0 0 0-33.940365 19.211527L10.188411 640.409846a35.861517 35.861517 0 0 0-3.842306 16.009606 32.019212 32.019212 0 0 0 11.526916 24.3346 37.78267 37.78267 0 0 0 25.61537 9.605764 30.098059 30.098059 0 0 0 26.896137-21.773064l21.13268-44.186512h151.130678zM120.974883 565.484891l46.748048-99.259556 47.388433 99.259556zM448.851609 384.256154a56.353812 56.353812 0 0 0-38.423054 12.807684 43.546128 43.546128 0 0 0-14.728838 34.580749v226.696017q0 29.457675 32.019212 29.457675c21.13268 0 32.019212-9.605763 32.019211-29.457675V576.371423h113.348009a88.373024 88.373024 0 0 0 67.880729-29.457675 103.101861 103.101861 0 0 0 0-136.401841 84.530718 84.530718 0 0 0-64.038423-29.457674z m156.253752 96.698019A41.624975 41.624975 0 0 1 595.499597 512.333a32.659596 32.659596 0 0 1-24.3346 10.886532H459.097756v-64.038423c0-9.605763 3.842305-14.728837 11.526916-14.728838h99.89994a32.019212 32.019212 0 0 1 24.334601 10.886532 40.984591 40.984591 0 0 1 10.246148 25.61537zM988.695515 413.073444a84.530718 84.530718 0 0 0-64.038423-29.457675h-128.076846a56.353812 56.353812 0 0 0-38.423054 12.807685 43.546128 43.546128 0 0 0-14.728837 34.580749v226.696017q0 29.457675 32.019211 29.457675c21.13268 0 32.019212-9.605763 32.019212-29.457675V576.371423h114.628777a88.373024 88.373024 0 0 0 67.880728-29.457675 103.101861 103.101861 0 0 0 0-136.401841zM940.026313 512.333a32.659596 32.659596 0 0 1-24.3346 10.886532h-112.067241v-64.038423c0-9.605763 3.842305-14.728837 11.526916-14.728838h100.540325a32.019212 32.019212 0 0 1 24.3346 10.886532 45.46728 45.46728 0 0 1 0 56.353813zM877.909043 734.546328a32.019212 32.019212 0 0 0-32.019212 32.019211v192.115269H198.461374V768.486692a32.019212 32.019212 0 0 0-64.038423 0v223.494096a32.019212 32.019212 0 0 0 32.019212 32.019212h711.46688a32.019212 32.019212 0 0 0 32.019212-32.019212V768.486692a32.019212 32.019212 0 0 0-32.019212-33.940364zM167.722931 320.217731a32.019212 32.019212 0 0 0 32.019212-32.019212V64.064038h646.147688v220.93256a32.019212 32.019212 0 1 0 64.038424 0V32.044827a32.019212 32.019212 0 0 0-32.019212-32.019212H167.722931A32.019212 32.019212 0 0 0 134.422951 32.044827v256.153692a32.019212 32.019212 0 0 0 33.29998 32.019212z" fill="#666666" p-id="1995"></path></svg>