<svg xmlns="http://www.w3.org/2000/svg" width="400" height="400" class="icon" p-id="1886" t="1562668148665" version="1.1" viewBox="0 0 1024 1024"><path d="M512 1024C229.376 1024 0 794.624 0 512 0 229.376 229.376 0 512 0c282.624 0 512 229.376 512 512C1024 794.624 794.624 1024 512 1024M798.72 409.6l-71.68 0 0-92.16c0 0 0-215.04-215.04-215.04C296.96 102.4 296.96 317.44 296.96 317.44L296.96 409.6 225.28 409.6l0 409.6 573.44 0L798.72 409.6zM512 163.84c143.36 0 153.6 129.024 153.6 153.6L665.6 409.6l-307.2 0 0-92.16C358.4 292.864 368.64 163.84 512 163.84M512 532.48c34.816 0 61.44 26.624 61.44 61.44 0 22.528-12.288 43.008-30.72 53.248l0 108.544-61.44 0 0-108.544C462.848 636.928 450.56 616.448 450.56 593.92 450.56 559.104 477.184 532.48 512 532.48" p-id="1887"/></svg>