<svg t="1563246276644" class="icon" viewBox="0 0 1024 1024" version="1.1" xmlns="http://www.w3.org/2000/svg" p-id="2059" width="400" height="400"><path d="M512 0C229.831111 0 0 229.831111 0 512S229.831111 1024 512 1024 1024 794.168889 1024 512 794.168889 0 512 0z m0 68.266667C741.831111 68.266667 932.977778 245.76 953.457778 471.04c-147.911111-63.715556-316.302222-9.102222-482.417778 43.235556-152.462222 47.786667-295.822222 93.297778-400.497778 38.684444-2.275556-13.653333-2.275556-27.306667-2.275555-40.96C68.266667 266.24 266.24 68.266667 512 68.266667z m0 887.466666c-202.524444 0-373.191111-136.533333-425.528889-320.853333 31.857778 9.102222 63.715556 13.653333 97.848889 13.653333 97.848889 0 204.8-34.133333 309.475556-68.266666 163.84-52.337778 332.231111-104.675556 461.937777-31.857778-20.48 227.555556-211.626667 407.324444-443.733333 407.324444z" fill="#ffffff" p-id="2060"></path></svg>