<?xml version="1.0" standalone="no"?><!DOCTYPE svg PUBLIC "-//W3C//DTD SVG 1.1//EN" "http://www.w3.org/Graphics/SVG/1.1/DTD/svg11.dtd"><svg t="1561978483568" class="icon" viewBox="0 0 1024 1024" version="1.1" xmlns="http://www.w3.org/2000/svg" p-id="2722" xmlns:xlink="http://www.w3.org/1999/xlink" width="400" height="400"><defs><style type="text/css"></style></defs><path d="M289.391304 422.956522m-51.2 0a2.3 2.3 0 1 0 102.4 0 2.3 2.3 0 1 0-102.4 0Z" p-id="2723"></path><path d="M449.669565 422.956522m-51.2 0a2.3 2.3 0 1 0 102.4 0 2.3 2.3 0 1 0-102.4 0Z" p-id="2724"></path><path d="M609.947826 422.956522m-51.2 0a2.3 2.3 0 1 0 102.4 0 2.3 2.3 0 1 0-102.4 0Z" p-id="2725"></path><path d="M923.826087 770.226087c-6.678261 11.130435-2.226087 22.26087 6.678261 28.93913 4.452174 2.226087 6.678261 2.226087 11.130435 2.226087 6.678261 0 13.356522-4.452174 17.808696-11.130435l28.93913-48.973913c22.26087-44.521739 35.617391-93.495652 35.617391-142.469565 0-100.173913-48.973913-193.669565-131.33913-251.547826C857.043478 189.217391 716.8 71.234783 547.617391 71.234783l-195.895652 0C158.052174 71.234783 0 229.286957 0 422.956522c0 57.878261 13.356522 113.530435 42.295652 164.730435l35.617391 55.652174c6.678261 11.130435 20.034783 13.356522 28.93913 6.678261 11.130435-6.678261 13.356522-20.034783 6.678261-28.93913l-33.391304-53.426087c-22.26087-44.521739-35.617391-93.495652-35.617391-144.695652 0-171.408696 138.017391-309.426087 309.426087-309.426087l195.895652 0c171.408696 0 309.426087 138.017391 309.426087 309.426087 0 171.408696-138.017391 309.426087-309.426087 309.426087l-195.895652 0c-55.652174 0-109.078261-15.582609-155.826087-42.295652 0 0-2.226087-2.226087-2.226087-2.226087 0 0 0 0 0 0-11.130435-6.678261-22.26087-2.226087-28.93913 6.678261-2.226087 2.226087-2.226087 4.452174-2.226087 6.678261l-82.365217 82.365217c-8.904348 8.904348-8.904348 22.26087 0 31.165217 4.452174 4.452174 8.904348 6.678261 15.582609 6.678261s11.130435-2.226087 15.582609-6.678261l80.13913-80.13913c33.391304 17.808696 66.782609 28.93913 102.4 35.617391 57.878261 86.817391 153.6 138.017391 256 138.017391l169.182609 0c51.2 0 102.4-13.356522 146.921739-37.843478l77.913043 77.913043c4.452174 4.452174 8.904348 6.678261 15.582609 6.678261s11.130435-2.226087 15.582609-6.678261c8.904348-8.904348 8.904348-22.26087 0-31.165217l-91.269565-91.269565c-8.904348-8.904348-22.26087-8.904348-31.165217 0 0 0-2.226087 2.226087-2.226087 2.226087-40.069565 22.26087-84.591304 35.617391-131.33913 35.617391l-169.182609 0c-75.686957 0-146.921739-33.391304-195.895652-89.043478 0 0 0 0 2.226087 0l195.895652 0c193.669565 0 351.721739-158.052174 351.721739-351.721739 0-4.452174 0-8.904348 0-13.356522 51.2 48.973913 82.365217 117.982609 82.365217 189.217391 0 42.295652-11.130435 84.591304-28.93913 122.434783L923.826087 770.226087z" p-id="2726"></path></svg>