<svg xmlns="http://www.w3.org/2000/svg" width="400" height="400" class="icon" p-id="1672" t="1563162212763" version="1.1" viewBox="0 0 1024 1024"><path d="M433.230769 708.923077c0-53.169231 17.723077-114.215385 45.292308-161.476923 33.476923-59.076923 70.892308-82.707692 100.430769-126.030769 49.230769-72.861538 59.076923-177.230769 27.569231-256C575.015385 84.676923 500.184615 37.415385 413.538462 39.384615s-157.538462 55.138462-185.107693 135.876923c-31.507692 88.615385-17.723077 194.953846 53.169231 261.907693 29.538462 27.569231 57.107692 70.892308 41.353846 112.246154-13.784615 39.384615-61.046154 57.107692-94.523077 72.861538-76.8 33.476923-169.353846 80.738462-185.107692 171.323077C27.569231 868.430769 78.769231 945.230769 159.507692 945.230769h334.769231c15.753846 0 25.6-19.692308 15.753846-31.507692C460.8 856.615385 433.230769 783.753846 433.230769 708.923077z m315.076923-236.307692c-129.969231 0-236.307692 106.338462-236.307692 236.307692s106.338462 236.307692 236.307692 236.307692 236.307692-106.338462 236.307693-236.307692-106.338462-236.307692-236.307693-236.307692z m41.353846 257.96923c-5.907692 0-13.784615-1.969231-19.692307-3.938461l-90.584616 90.584615c-5.907692 5.907692-13.784615 7.876923-19.692307 7.876923-7.876923 0-13.784615-1.969231-19.692308-7.876923-9.846154-9.846154-9.846154-27.569231 0-39.384615l90.584615-90.584616c-1.969231-5.907692-3.938462-11.815385-3.938461-19.692307-3.938462-41.353846 29.538462-78.769231 70.892308-78.769231 5.907692 0 13.784615 1.969231 19.692307 3.938462 3.938462 0 3.938462 3.938462 1.969231 5.907692l-39.384615 41.353846c-3.938462 1.969231-3.938462 7.876923 0 9.846154l27.56923 27.569231c3.938462 3.938462 7.876923 3.938462 11.815385 0l39.384615-39.384616c1.969231-1.969231 5.907692-1.969231 5.907693 1.969231 1.969231 5.907692 3.938462 13.784615 3.938461 19.692308 0 41.353846-35.446154 74.830769-78.769231 70.892307z" p-id="1673"/></svg>