<svg xmlns="http://www.w3.org/2000/svg" xmlns:xlink="http://www.w3.org/1999/xlink" width="556.641" height="400" class="icon" p-id="3706" t="1561978502472" version="1.1" viewBox="0 0 1425 1024"><defs><style type="text/css"/></defs><path d="M1199.86087 22.26087 202.573913 22.26087C175.86087 22.26087 155.826087 66.782609 155.826087 66.782609 155.826087 66.782609 8.904348 376.208696 31.165217 380.66087 57.878261 445.217391 126.886957 491.965217 204.8 491.965217 282.713043 491.965217 345.043478 445.217391 373.982609 380.66087L373.982609 380.66087C402.921739 445.217391 465.252174 491.965217 543.165217 491.965217 621.078261 491.965217 685.634783 445.217391 714.573913 380.66087L714.573913 380.66087C741.286957 445.217391 805.843478 491.965217 885.982609 491.965217 963.895652 491.965217 1026.226087 445.217391 1055.165217 380.66087L1055.165217 380.66087C1081.878261 445.217391 1146.434783 491.965217 1224.347826 491.965217 1304.486957 491.965217 1371.269565 445.217391 1397.982609 380.66087 1418.017391 376.208696 1248.834783 66.782609 1248.834783 66.782609 1248.834783 66.782609 1226.573913 22.26087 1199.86087 22.26087L1199.86087 22.26087Z" p-id="3707"/><path d="M1266.643478 491.965217 1266.643478 957.217391C1266.643478 981.704348 1246.608696 1001.73913 1222.121739 1001.73913L200.347826 1001.73913C175.86087 1001.73913 155.826087 981.704348 155.826087 957.217391L155.826087 491.965217" p-id="3708"/><path d="M244.869565 578.782609l554.295652 0 0 287.165217-554.295652 0 0-287.165217Z" p-id="3709"/><path d="M890.434783 556.521739l287.165217 0 0 442.991304-287.165217 0 0-442.991304Z" p-id="3710"/><path d="M371.756522 380.66087 447.443478 22.26087" p-id="3711"/><path d="M710.121739 380.66087 710.121739 22.26087" p-id="3712"/><path d="M1052.93913 378.434783 950.53913 28.93913" p-id="3713"/><path d="M425.182609 581.008696 425.182609 868.173913" p-id="3714"/><path d="M623.304348 581.008696 623.304348 868.173913" p-id="3715"/></svg>