<svg t="1562745660161" class="icon" viewBox="0 0 1024 1024" version="1.1" xmlns="http://www.w3.org/2000/svg" p-id="2011" width="400" height="400"><path d="M396.075269 434.513208 101.316012 434.513208c-21.146623 0-38.350446-17.203824-38.350446-38.350446L62.965565 101.403504c0-21.146623 17.203824-38.350446 38.350446-38.350446l294.759257 0c21.146623 0 38.350446 17.203824 38.350446 38.350446l0 294.759257C434.425715 417.309384 417.221892 434.513208 396.075269 434.513208zM101.316012 88.635713c-7.040347 0-12.767791 5.727445-12.767791 12.767791l0 294.759257c0 7.040347 5.727445 12.767791 12.767791 12.767791l294.759257 0c7.040347 0 12.767791-5.727445 12.767791-12.767791L408.84306 101.403504c0-7.040347-5.727445-12.767791-12.767791-12.767791L101.316012 88.635713z" p-id="2012"></path><path d="M920.009066 434.513208 625.248785 434.513208c-21.146623 0-38.350446-17.203824-38.350446-38.350446L586.898339 101.403504c0-21.146623 17.203824-38.350446 38.350446-38.350446l294.760281 0c21.146623 0 38.350446 17.203824 38.350446 38.350446l0 294.759257C958.358489 417.309384 941.155688 434.513208 920.009066 434.513208zM625.248785 88.635713c-7.040347 0-12.767791 5.727445-12.767791 12.767791l0 294.759257c0 7.040347 5.727445 12.767791 12.767791 12.767791l294.760281 0c7.040347 0 12.767791-5.727445 12.767791-12.767791L932.776857 101.403504c0-7.040347-5.727445-12.767791-12.767791-12.767791L625.248785 88.635713z" p-id="2013"></path><path d="M926.02099 959.469288l-293.934472 0c-9.724479 0-19.916609-2.707668-27.962865-7.42818-11.106965-6.515391-17.22429-16.20303-17.22429-27.27725L586.899362 630.831432c0-20.897959 23.64963-43.845601 45.187155-43.845601l293.934472 0c21.901823 0 33.361829 22.057365 33.361829 43.845601l0 293.932426C959.381795 946.495812 946.910763 959.469288 926.02099 959.469288zM632.085494 612.568487c-7.328919 0-19.6045 11.435447-19.6045 18.262946l0 293.932426c0 3.89982 9.692756 9.122775 19.6045 9.122775l293.934472 0c5.393847 0 7.779174-0.36839 7.779174-9.122775L933.79914 630.831432c0-9.387811-3.780093-18.262946-7.779174-18.262946L632.085494 612.568487z" p-id="2014"></path><path d="M402.0524 959.469288 108.118951 959.469288c-9.724479 0-19.912515-2.708692-27.952632-7.432273-11.091616-6.514367-17.200754-16.200984-17.200754-27.273157L62.965565 630.831432c0-20.897959 23.63121-43.845601 45.153386-43.845601l293.933449 0c19.061125 0 32.373315 18.029632 32.373315 43.845601l0 293.932426C434.425715 956.088284 411.786089 959.469288 402.0524 959.469288zM108.118951 612.568487c-7.315616 0-19.570731 11.435447-19.570731 18.262946l0 293.932426c0 3.89982 9.67536 9.122775 19.570731 9.122775l293.933449 0c4.941546 0 6.79066 0 6.79066-9.122775L408.84306 630.831432c0-9.55768-3.236718-18.262946-6.79066-18.262946L108.118951 612.568487z" p-id="2015"></path></svg>